<?xml version="1.0" encoding="UTF-8"?>
<svg version="1.1" xmlns="http://www.w3.org/2000/svg" width="500" height="500">
<path d="M0 0 C67.65 0 135.3 0 205 0 C207.29854397 18.38835175 207.29854397 18.38835175 207.8515625 27.1875 C207.91532074 28.14148682 207.97907898 29.09547363 208.04476929 30.07836914 C208.24252692 33.05197879 208.43390842 36.02595537 208.625 39 C208.75998918 41.04690324 208.89540314 43.09377851 209.03125 45.140625 C209.35905211 50.09344204 209.68114718 55.0465991 210 60 C207.69 60.66 205.38 61.32 203 62 C202.27296875 60.47632813 202.27296875 60.47632813 201.53125 58.921875 C192.13358713 39.50130153 181.16864787 23.20991925 160.23828125 15.125 C129.22961841 4.35238854 95.1311561 7.54459587 63 7 C63 48.91 63 90.82 63 134 C115.50503893 137.83752531 115.50503893 137.83752531 167.796875 118.19140625 C171.74538651 113.33395521 173.95465441 107.87134497 176 102 C178.31 102 180.62 102 183 102 C183 125.76 183 149.52 183 174 C180.69 174 178.38 174 176 174 C175.69707031 173.20335937 175.39414062 172.40671875 175.08203125 171.5859375 C171.0894317 161.48773187 166.87568785 155.05362785 157 150 C141.96261836 144.09884375 126.7889999 142.72834916 110.75390625 142.5859375 C109.3628585 142.56715646 107.97182132 142.54757836 106.58079529 142.5272522 C102.97580289 142.4766553 99.37077382 142.43664994 95.765625 142.39910889 C92.0643665 142.35860586 88.36325077 142.30772875 84.66210938 142.2578125 C77.44150537 142.16191519 70.22083026 142.07724459 63 142 C63.06059361 159.20299502 63.13813514 176.40581959 63.23571491 193.60864258 C63.28063265 201.59666625 63.32005653 209.58464573 63.34643555 217.57275391 C63.36944828 224.53722282 63.40288273 231.50155143 63.44870156 238.465909 C63.4725898 242.15166093 63.4913473 245.8372743 63.49761391 249.52310181 C63.50481451 253.64320579 63.53528742 257.76282909 63.56762695 261.8828125 C63.56619186 263.09769852 63.56475677 264.31258453 63.5632782 265.56428528 C63.63600174 272.1189542 64.27595424 277.02550164 67 283 C67.495 284.485 67.495 284.485 68 286 C75.76983155 290.00264049 83.95469018 290.29895497 92.48828125 290.265625 C94.13500069 290.26849518 94.13500069 290.26849518 95.81498718 290.27142334 C98.1355309 290.27278016 100.45608233 290.26911897 102.77661133 290.26074219 C106.26336553 290.25014927 109.74959102 290.26059592 113.23632812 290.2734375 C123.39663841 290.28050286 133.4958111 290.17164476 143.609375 289.125 C144.33800247 289.04960999 145.06662994 288.97421997 145.81733704 288.89654541 C165.74230933 286.53329728 184.36239117 277.90515514 197.3203125 262.28125 C203.57676031 253.78412089 208.47767209 244.50716664 213 235 C214.98 235 216.96 235 219 235 C219.13450363 246.33317645 218.79207106 257.59569141 218.20043945 268.91235352 C218.06104736 271.59040861 217.92955153 274.26877477 217.79882812 276.94726562 C217.71140004 278.67450264 217.62352589 280.40171715 217.53515625 282.12890625 C217.49656998 282.91753555 217.4579837 283.70616486 217.41822815 284.51869202 C217.37826218 285.26735031 217.3382962 286.01600861 217.29711914 286.78735352 C217.26380997 287.43414566 217.23050079 288.08093781 217.19618225 288.74732971 C216.92636704 291.84549328 216.4398049 294.92136567 216 298 C144.72 298 73.44 298 0 298 C0 295.69 0 293.38 0 291 C2.9826906 289.47551369 5.818202 288.06059933 9 287 C10.15944906 285.16611569 10.15944906 285.16611569 11 283 C11.2578125 282.39542969 11.515625 281.79085938 11.78125 281.16796875 C16.85314138 267.19270282 16.29033627 252.0888486 16.25878906 237.44750977 C16.26150469 235.31364829 16.26506881 233.17978775 16.26940918 231.04592896 C16.27846799 225.29177049 16.27501581 219.53768436 16.26865101 213.78352475 C16.26355646 207.73588456 16.26829207 201.6882502 16.27142334 195.64060974 C16.27505324 185.48720193 16.27028984 175.33382329 16.26074219 165.18041992 C16.24986248 153.47599433 16.25338368 141.77163845 16.264395 130.06721455 C16.27349925 119.98266303 16.27473776 109.89813238 16.26951766 99.81357807 C16.26641479 93.8060768 16.26594194 87.7986082 16.27259064 81.79110909 C16.27840918 76.13978598 16.27428547 70.4885519 16.26280212 64.83723831 C16.26017936 62.77503672 16.26087931 60.71282751 16.26532745 58.65062904 C17.15361986 32.8356717 17.15361986 32.8356717 6.5625 10.41015625 C4.55761921 8.60075134 2.6012137 7.68855657 0 7 C0 4.69 0 2.38 0 0 Z " fill="#F7F7F7" transform="translate(143,91)"/>
<path d="M0 0 C5.43638561 2.68118262 10.33273253 6.06863377 13.58203125 11.2734375 C13.65949384 16.15358092 13.47237902 18.20996656 10.33203125 21.9609375 C1.43033725 28.3011946 -10.85372182 30.77795494 -21.1875 33.8828125 C-22.56230315 34.29901524 -23.93703206 34.71546328 -25.31169128 35.13214111 C-28.16539057 35.99584481 -31.0201587 36.85589371 -33.87573242 37.71337891 C-37.51688652 38.80719788 -41.15479265 39.911418 -44.79193592 41.01848984 C-47.61912849 41.87755929 -50.44813033 42.73054179 -53.27768517 43.58179474 C-54.61977786 43.98644959 -55.96127706 44.39307879 -57.30213356 44.80181122 C-64.001928 46.84100039 -70.42043871 48.72340852 -77.41796875 49.2734375 C-77.74796875 47.9534375 -78.07796875 46.6334375 -78.41796875 45.2734375 C-77.75152344 44.73976562 -77.08507812 44.20609375 -76.3984375 43.65625 C-71.44087934 39.64860159 -66.60858131 35.59177922 -61.91796875 31.2734375 C-57.47121593 27.18040366 -52.87357954 23.34848199 -48.16796875 19.55859375 C-45.32608984 17.19708926 -42.62291494 14.72761329 -39.91796875 12.2109375 C-27.26532492 0.57486189 -17.15039839 -6.91904484 0 0 Z " fill="#F1F1F1" transform="translate(272.41796875,20.7265625)"/>
</svg>
